<svg xmlns="http://www.w3.org/2000/svg" width="100" height="100" viewBox="0 0 100 100">
<rect width="100" height="100" fill="#2a2a2a" rx="8"/>
<text x="14" y="42" font-family="serif" font-size="22" fill="#fff">Aa</text>
<path d="M50 30 L60 30 L60 34 L50 34 Z" fill="#fff"/>
<path d="M62 25 C72 25 78 32 78 40 C78 48 72 55 62 55 L62 52 C70 52 75 47 75 40 C75 33 70 28 62 28 Z" fill="#fff"/>
<path d="M65 20 C77 20 84 29 84 40 C84 51 77 60 65 60 L65 57 C75 57 81 49 81 40 C81 31 75 23 65 23 Z" fill="#fff"/>
<polygon points="50,62 65,72 50,82" fill="#fff"/>
</svg>
